HIERARCHY
ROOT Hips
{
	OFFSET 0.000000 0.000000 0.000000 
	CHANNELS 6 Xposition Yposition Zposition Zrotation Yrotation Xrotation
	JOINT LeftUpLeg
	{
		OFFSET 1.363060 -1.794630 0.839290 
		CHANNELS 3 Zrotation Yrotation Xrotation
		JOINT LeftLeg
		{
			OFFSET 2.448110 -6.726130 0.000000 
			CHANNELS 3 Zrotation Yrotation Xrotation
			JOINT LeftFoot
			{
				OFFSET 2.562200 -7.039590 0.000000 
				CHANNELS 3 Zrotation Yrotation Xrotation
				JOINT LeftToeBase
				{
					OFFSET 0.157640 -0.433110 2.322550 
					CHANNELS 3 Zrotation Yrotation Xrotation
					End Site
					{
						OFFSET 0.000000 0.000000 0.000000 
					}
				}
			}
		}
	}
	JOINT RightUpLeg
	{
		OFFSET -1.305520 -1.794630 0.839290 
		CHANNELS 3 Zrotation Yrotation Xrotation
		JOINT RightLeg
		{
			OFFSET -2.542530 -6.985550 0.000000 
			CHANNELS 3 Zrotation Yrotation Xrotation
			JOINT RightFoot
			{
				OFFSET -2.568260 -7.056230 0.000000 
				CHANNELS 3 Zrotation Yrotation Xrotation
				JOINT RightToeBase
				{
					OFFSET -0.164730 -0.452590 2.363150 
					CHANNELS 3 Zrotation Yrotation Xrotation
					End Site
					{
						OFFSET 0.000000 0.000000 0.000000 
					}
				}
			}
		}
	}
	JOINT Spine
	{
		OFFSET 0.028270 2.035590 -0.193380 
		CHANNELS 3 Zrotation Yrotation Xrotation
		JOINT Spine1
		{
			OFFSET 0.056720 2.048850 -0.042750 
			CHANNELS 3 Zrotation Yrotation Xrotation
			JOINT Neck1
			{
				OFFSET -0.054170 1.746240 0.172020 
				CHANNELS 3 Zrotation Yrotation Xrotation
				JOINT Head
				{
					OFFSET 0.104070 1.761360 -0.123970 
					CHANNELS 3 Zrotation Yrotation Xrotation
					End Site
					{
						OFFSET 0.000000 0.000000 0.000000 
					}
				}
			}
			JOINT LeftArm
			{
				OFFSET 3.362410 1.200890 -0.311210 
				CHANNELS 3 Zrotation Yrotation Xrotation
				JOINT LeftForeArm
				{
					OFFSET 4.983000 -0.000000 -0.000000 
					CHANNELS 3 Zrotation Yrotation Xrotation
					JOINT LeftHand
					{
						OFFSET 3.483560 -0.000000 -0.000000 
						CHANNELS 3 Zrotation Yrotation Xrotation
						JOINT LeftHandIndex1
						{
							OFFSET 0.715260 -0.000000 -0.000000 
							CHANNELS 3 Zrotation Yrotation Xrotation
							End Site
							{
								OFFSET 0.000000 0.000000 0.000000 
							}
						}
					}
				}
			}
			JOINT RightArm
			{
				OFFSET -3.136600 1.374050 -0.404650 
				CHANNELS 3 Zrotation Yrotation Xrotation
				JOINT RightForeArm
				{
					OFFSET -5.241900 -0.000000 -0.000000 
					CHANNELS 3 Zrotation Yrotation Xrotation
					JOINT RightHand
					{
						OFFSET -3.444170 -0.000000 -0.000000 
						CHANNELS 3 Zrotation Yrotation Xrotation
						JOINT RightHandIndex1
						{
							OFFSET -0.622530 -0.000000 -0.000000 
							CHANNELS 3 Zrotation Yrotation Xrotation
							End Site
							{
								OFFSET 0.000000 0.000000 0.000000 
							}
						}
					}
				}
			}
		}
	}
}
MOTION
Frames: 16
Frame Time: 0.041667
8.617753 17.494635 7.084405 2.473099 2.056876 29.056323 -12.135186 -7.694941 -55.369523 6.885899 17.747119 51.348348 -1.119347 7.358352 -7.320908 2.698800 -10.190800 -29.596800 12.790471 17.553106 -49.327127 -4.543759 -14.508115 41.391666 -0.764779 -6.884438 -26.766073 -0.844500 5.861600 -16.383500 0.658221 0.469931 -2.718679 3.228079 0.246866 2.009694 4.507837 -5.587155 8.817877 2.370100 -2.707100 3.751200 -52.464181 -57.101434 19.066541 16.530455 -17.373313 -5.628983 -2.169919 -2.294293 -18.130749 -7.125000 0.000000 0.000000 44.847459 56.202611 7.481435 -17.853768 16.361750 -5.070999 -2.348083 -2.372580 23.161307 7.125000 0.000000 0.000000 
8.605165 17.459366 7.217655 2.348988 1.799895 29.496707 -11.646161 -8.030721 -56.408884 7.330546 18.067901 52.692243 -1.299509 8.027538 -6.230961 2.961500 -10.632500 -31.050200 13.314503 16.984129 -50.124613 -4.776561 -14.755413 42.314972 -0.809596 -6.090644 -25.816360 -0.684200 5.288300 -14.732800 0.654449 0.558403 -2.718292 3.234726 0.291481 1.828041 4.478162 -5.505200 8.593601 2.317100 -2.661300 3.555000 -52.156059 -56.753295 17.976909 16.836670 -17.785020 -5.697361 -2.140423 -2.270716 -18.297692 -7.125000 0.000000 0.000000 45.066737 56.414204 7.044700 -18.270399 16.605520 -5.189565 -2.339387 -2.408122 23.111295 7.125000 0.000000 0.000000 
8.596886 17.402097 7.364628 2.248088 1.602184 29.791840 -11.216064 -8.322970 -57.304458 7.873076 18.432946 54.382927 -1.083795 6.899975 -4.499552 2.572200 -9.968100 -28.873400 13.733126 16.561967 -50.830053 -5.095746 -15.086816 43.581685 -0.856253 -5.450726 -25.112806 -0.553000 4.763700 -13.235900 0.657126 0.618320 -2.730188 3.282052 0.318507 1.648117 4.385287 -5.464363 8.290839 2.511500 -2.656000 3.797600 -52.143958 -56.246739 17.178127 17.425914 -18.501516 -5.852945 -2.078050 -2.257139 -18.988655 -7.125000 0.000000 0.000000 45.332427 56.474074 7.192835 -18.890215 17.043890 -5.358796 -2.284459 -2.475360 22.353770 7.125000 0.000000 0.000000 
8.593711 17.319084 7.528612 2.179091 1.377853 29.973019 -10.910226 -8.494308 -58.050110 8.522243 18.833042 56.374886 -1.069699 6.785455 -3.862921 2.545700 -9.920500 -28.719800 13.823848 16.432797 -51.582738 -5.535537 -15.527950 45.304721 -0.924806 -4.922977 -24.761962 -0.446500 4.287300 -11.886300 0.659745 0.678531 -2.735473 3.326293 0.332213 1.582965 4.290397 -5.298121 8.331006 2.403000 -2.577100 3.808800 -52.072441 -55.572338 16.519267 18.149563 -19.428379 -6.062178 -1.968095 -2.280907 -19.838762 -7.125000 0.000000 0.000000 46.133286 56.127105 7.919867 -19.973929 18.033038 -5.652107 -2.184346 -2.510572 20.965707 7.125000 0.000000 0.000000 
8.596886 17.215319 7.707792 2.167408 1.098132 30.086782 -10.695263 -8.635960 -58.621899 9.241591 19.239065 58.556805 -1.162656 7.254160 -4.271553 2.754200 -10.286000 -29.908100 13.764789 16.274886 -52.519770 -6.128474 -16.082491 47.561867 -1.025304 -4.459795 -24.772572 -0.447000 4.289400 -11.892400 0.653710 0.692218 -2.748830 3.336476 0.314520 1.673015 4.222770 -5.122914 8.536050 2.329200 -2.497400 3.988500 -52.344576 -54.782752 15.752546 18.904464 -20.394755 -6.297269 -1.869297 -2.294486 -19.940754 -7.125000 0.000000 0.000000 47.511837 55.733738 9.044943 -21.344965 19.306195 -6.034913 -2.098113 -2.514778 19.732147 7.125000 0.000000 0.000000 
8.605732 17.097038 7.895363 2.199866 0.799314 30.049218 -10.569798 -8.744489 -59.037567 10.026675 19.642637 60.937450 -1.181825 7.443052 -5.219034 2.927400 -10.576600 -30.864900 13.860862 15.934307 -53.450798 -6.885132 -16.725926 50.350496 -1.094475 -4.371138 -25.140374 -0.437800 4.245700 -11.768900 0.651086 0.684428 -2.766611 3.375594 0.287529 1.764220 4.283247 -4.957655 8.920391 2.095100 -2.405700 3.796200 -53.260612 -53.814037 15.342560 19.861971 -21.576976 -6.598224 -1.805379 -2.246926 -19.654531 -7.125000 0.000000 0.000000 49.233666 55.248341 10.482083 -22.861725 20.777037 -6.482654 -1.997675 -2.505517 18.677380 7.125000 0.000000 0.000000 
8.617639 16.956075 8.096317 2.221756 0.571892 29.711108 -10.542511 -8.701249 -59.276877 10.867454 20.025002 63.461383 -1.136258 7.353849 -6.139142 3.194900 -11.004100 -32.293600 14.045091 15.635075 -54.097258 -7.815063 -17.418253 53.581414 -1.150163 -3.360089 -23.899786 -0.302300 3.535300 -9.772900 0.658710 0.658857 -2.778560 3.444274 0.250329 1.825575 4.211438 -4.786075 9.121659 2.021200 -2.328300 3.896200 -54.519399 -52.508263 15.443690 21.041116 -23.049812 -6.990623 -1.747158 -2.163271 -19.094110 -7.125000 0.000000 0.000000 51.185987 54.481294 12.200881 -24.459239 22.456760 -6.991269 -1.887026 -2.468176 17.612859 7.125000 0.000000 0.000000 
8.632722 16.789370 8.306002 2.186950 0.560339 29.210381 -10.486448 -8.628936 -59.374402 11.815607 20.404864 66.281244 -1.026884 7.056514 -7.380426 3.314300 -11.187300 -32.914100 14.118183 15.527126 -54.627922 -8.859398 -18.112471 57.108936 -1.203762 -3.055643 -23.798113 -0.368400 3.898900 -10.792400 0.692061 0.545028 -2.788019 3.511083 0.174815 1.893414 4.106082 -4.559007 9.316134 1.943200 -2.226300 3.973800 -56.205519 -50.853910 15.739441 22.384236 -24.756449 -7.484576 -1.687358 -2.070517 -17.793452 -7.125000 0.000000 0.000000 53.208843 53.499824 14.137660 -26.045744 24.232592 -7.533416 -1.779197 -2.411510 16.625433 7.125000 0.000000 0.000000 
8.653815 16.591705 8.526575 2.073312 0.586016 28.708537 -10.384883 -8.513521 -59.542825 12.870763 20.769299 69.379468 -0.892249 6.765365 -8.911041 3.291300 -11.152300 -32.795200 14.006217 15.758838 -55.139368 -10.013850 -18.784762 60.856780 -1.400520 -2.427025 -24.316111 -0.234300 3.115300 -8.599900 0.719382 0.477985 -2.794975 3.462570 0.133968 2.026290 4.041525 -4.420694 9.475743 1.910600 -2.166400 4.034300 -58.300797 -48.995307 16.438037 23.947632 -26.714525 -8.113300 -1.615930 -1.973255 -16.474445 -7.125000 0.000000 0.000000 55.356043 52.190614 15.847686 -27.617563 26.152417 -8.166412 -1.661163 -2.337199 15.766019 7.125000 0.000000 0.000000 
8.674909 16.373855 8.756220 2.022345 0.684300 27.979424 -10.411324 -8.391557 -59.538980 13.979179 21.086720 72.598179 -0.784934 6.668700 -10.395183 3.350300 -11.241600 -33.099000 13.866757 16.020252 -55.280876 -11.265802 -19.402102 64.782365 -1.662289 -1.905806 -25.469195 -0.233400 3.109300 -8.583100 0.729331 0.472919 -2.795471 3.323885 0.129487 2.094621 4.027159 -4.406946 9.715343 1.868500 -2.161500 4.179100 -60.352228 -47.049470 17.724779 25.780714 -28.909866 -8.950553 -1.490563 -1.933527 -16.177978 -7.125000 0.000000 0.000000 57.760191 50.369713 17.062014 -29.290695 28.301989 -8.946589 -1.538485 -2.242147 15.227464 7.125000 0.000000 0.000000 
8.698043 16.152715 8.997205 1.949886 0.738962 27.117742 -10.473324 -8.262451 -59.318391 15.083952 21.340333 75.780006 -0.746509 6.967040 -11.881712 3.485800 -11.442800 -33.788200 13.810978 16.261135 -55.291171 -12.612102 -19.953734 68.892372 -1.869748 -1.745299 -26.689174 -0.491400 4.494500 -12.472200 0.739743 0.490052 -2.787399 3.215612 0.136533 2.147256 4.023272 -4.353007 10.020662 1.810700 -2.133500 4.320900 -62.520654 -44.980156 18.916403 27.665249 -31.098932 -9.907084 -1.367215 -1.903475 -15.976828 -7.125000 0.000000 0.000000 60.425879 48.039657 18.205496 -31.162505 30.702121 -9.901705 -1.409246 -2.137199 15.271307 7.125000 0.000000 0.000000 
8.722992 15.924658 9.245222 1.855301 0.733484 26.200698 -10.503660 -8.186762 -58.869254 16.179726 21.535867 78.930035 -0.719260 7.458978 -13.564303 3.572100 -11.568200 -34.221000 13.781804 16.483539 -55.372271 -14.046693 -20.427625 73.172070 -1.972937 -1.755589 -27.375362 -0.796900 5.697800 -15.910200 0.755960 0.560427 -2.739288 3.213828 0.157159 2.379893 4.042191 -4.323533 10.289003 1.789400 -2.117300 4.493100 -64.887910 -42.989654 19.575354 29.345457 -32.995198 -10.813315 -1.341638 -1.786062 -14.603670 -7.125000 0.000000 0.000000 62.608647 45.666341 19.158246 -33.030335 33.006010 -10.976467 -1.293509 -2.028344 15.759318 7.125000 0.000000 0.000000 
8.752704 15.683786 9.496754 1.867089 0.585860 25.423060 -10.634061 -8.255947 -58.391427 17.300758 21.684140 82.162248 -0.642285 7.874968 -15.397794 3.576200 -11.574000 -34.241100 13.492483 16.678918 -55.775753 -15.604092 -20.819293 77.718189 -2.014961 -1.671134 -27.502260 -0.986200 6.320900 -17.718300 0.760185 0.677881 -2.644726 3.294053 0.177247 2.982779 4.110563 -4.345139 10.597276 1.830000 -2.126500 4.855000 -66.951472 -41.133538 20.421772 31.345755 -35.099841 -11.975010 -1.305953 -1.668812 -13.386232 -7.125000 0.000000 0.000000 64.215378 43.571087 19.692690 -34.853277 35.115883 -12.131925 -1.203784 -1.908501 16.651278 7.125000 0.000000 0.000000 
8.789901 15.437810 9.755771 1.968404 0.357717 24.726703 -10.842258 -8.443198 -57.785236 18.303975 21.766752 85.064330 -0.508842 8.033194 -17.025646 3.574500 -11.571600 -34.232800 12.972602 16.772713 -56.260345 -17.094094 -21.077128 81.979304 -2.074814 -1.128741 -27.124541 -1.023200 6.434900 -18.051600 0.758179 0.687380 -2.553248 3.334082 0.151456 3.595567 4.146215 -4.262676 10.908411 1.887700 -2.090700 5.154500 -68.683612 -39.007338 21.311784 33.464274 -37.213490 -13.321953 -1.240830 -1.615495 -11.853151 -7.125000 0.000000 0.000000 65.783361 41.355598 20.278318 -37.072339 37.393871 -13.532115 -1.106699 -1.821770 17.677430 7.125000 0.000000 0.000000 
8.836397 15.072647 10.003334 1.970648 0.278996 23.940561 -10.741217 -8.908439 -57.438679 19.413751 21.814896 88.262998 -0.351332 8.185212 -18.678461 3.660000 -11.693700 -34.656900 12.355250 17.666056 -56.823528 -18.630489 -21.248869 86.340724 -2.179243 -0.708210 -27.213216 -1.081700 6.610600 -18.566800 0.762313 0.640586 -2.471581 3.212842 0.134926 3.947956 4.092023 -4.131743 11.072759 1.921400 -2.037900 5.125700 -70.415777 -36.503509 22.462641 35.629341 -39.228775 -14.787896 -1.173566 -1.594588 -10.053285 -7.125000 0.000000 0.000000 67.210855 38.603243 20.948400 -40.146534 40.101647 -15.498090 -0.971169 -1.795485 17.938439 7.125000 0.000000 0.000000 
8.875408 14.909117 10.275279 1.855005 0.250546 23.105370 -10.895021 -9.330667 -55.653670 19.896074 21.793923 89.712170 -0.278972 8.774939 -20.354721 3.798600 -11.887500 -35.335000 12.675640 17.770972 -55.710368 -19.436268 -21.280688 88.648187 -2.173137 -1.082093 -27.659665 -1.315600 7.264900 -20.502700 0.761124 0.670345 -2.393019 3.006516 0.177817 4.057846 4.069311 -4.042038 11.177422 1.942600 -1.998000 4.926300 -72.056863 -33.817901 23.764741 37.858272 -41.101677 -16.356935 -1.139606 -1.540151 -8.307659 -7.125000 0.000000 0.000000 68.469406 35.463786 21.645820 -43.619650 42.794545 -17.917633 -0.821008 -1.773821 17.310380 7.125000 0.000000 0.000000 
